<?xml version="1.0" encoding="utf-8"?>
<!-- Generator: Adobe Illustrator 22.1.0, SVG Export Plug-In . SVG Version: 6.00 Build 0)  -->
<svg version="1.1" id="Layer_1" xmlns="http://www.w3.org/2000/svg" xmlns:xlink="http://www.w3.org/1999/xlink" x="5px" y="5px"
	 viewBox="0 0 512 512" style="enable-background:new 0 0 512 512;" xml:space="preserve">
<g>
	<path d="M79.7,177.4l92.1,252.2C107.4,398.4,63,332.4,63,256C63,228,69,201.5,79.7,177.4z M386.3,246.3c0-23.9-8.5-40.4-15.9-53.3
		c-9.8-15.9-19-29.4-19-45.3c0-17.8,13.4-34.3,32.4-34.3c0.8,0,1.6,0.1,2.5,0.2C352,82.2,306.3,62.9,256,62.9
		c-67.4,0-126.7,34.6-161.3,87c4.5,0.2,8.8,0.3,12.4,0.3c20.1,0,51.4-2.4,51.4-2.4c10.4-0.6,11.6,14.7,1.3,15.9c0,0-10.4,1.2-22,1.8
		l70.3,209l42.3-126.7l-30-82.4c-10.4-0.6-20.2-1.8-20.2-1.8c-10.4-0.6-9.2-16.5,1.2-15.9c0,0,31.8,2.4,50.8,2.4
		c20.1,0,51.4-2.4,51.4-2.4c10.4-0.6,11.6,14.7,1.3,15.9c0,0-10.4,1.2-22,1.8l69.8,207.5l19.2-64.3
		C379.9,281.9,386.3,262.8,386.3,246.3L386.3,246.3z M259.4,272.9l-57.9,168.3c17.3,5.1,35.6,7.9,54.5,7.9c22.5,0,44-3.9,64.1-11
		c-0.5-0.8-1-1.7-1.4-2.6L259.4,272.9z M425.4,163.4c0.8,6.2,1.3,12.7,1.3,19.9c0,19.6-3.6,41.6-14.7,69.1l-59,170.5
		c57.4-33.5,96-95.6,96-166.8C449,222.4,440.4,190.9,425.4,163.4L425.4,163.4z M481,256c0,124.1-101,225-225,225
		C131.9,481,31,380,31,256C31,131.9,131.9,31,256,31C380,31,481,131.9,481,256z M470.7,256c0-118.4-96.4-214.7-214.7-214.7
		C137.6,41.3,41.3,137.6,41.3,256S137.7,470.7,256,470.7C374.4,470.7,470.7,374.4,470.7,256z"/>
</g>
</svg>
